<?xml version="1.0" encoding="UTF-8" standalone="no"?>
<svg
   xmlns:dc="http://purl.org/dc/elements/1.1/"
   xmlns:cc="http://creativecommons.org/ns#"
   xmlns:rdf="http://www.w3.org/1999/02/22-rdf-syntax-ns#"
   xmlns:svg="http://www.w3.org/2000/svg"
   xmlns="http://www.w3.org/2000/svg"
   xml:space="preserve"
   enable-background="new 0 0 708.661 708.679"
   viewBox="0 0 412.661 112.67901"
   height="112.67902"
   width="412.66101"
   y="0px"
   x="0px"
   id="Capa_1"
   version="1.1"><metadata
     id="metadata3771"><rdf:RDF><cc:Work
         rdf:about=""><dc:format>image/svg+xml</dc:format><dc:type
           rdf:resource="http://purl.org/dc/dcmitype/StillImage" /><dc:title></dc:title></cc:Work></rdf:RDF></metadata><defs
     id="defs3769" /><g
     transform="translate(-147.3491,-297.08279)"
     id="g3764"><path
       style="fill:#ffffff"
       id="path3738"
       d="M 247.872,301.082 H 158.35 c -4.68,0 -8.488,3.807 -8.488,8.488 v 89.523 c 0,4.68 3.807,8.488 8.487,8.488 h 89.523 c 4.68,0 8.487,-3.807 8.487,-8.488 V 309.57 c 0.001,-4.681 -3.807,-8.488 -8.487,-8.488 z m -55.596,43.183 c 1.402,3.702 3.409,7.146 5.955,10.21 l -38.989,38.989 v -16.165 z m 24.256,-10.382 c 0.798,1.436 1.801,2.789 3.02,4.009 1.22,1.22 2.573,2.222 4.009,3.02 l -6.204,18.613 c -4.565,-1.395 -8.716,-3.887 -12.133,-7.305 -3.417,-3.417 -5.909,-7.568 -7.305,-12.133 z m -52.552,64.318 38.988,-38.988 c 3.065,2.546 6.508,4.552 10.211,5.955 l -33.033,33.033 z m 83.001,0 H 189.62 L 221.921,365.9 c 0.026,-0.026 0.048,-0.054 0.072,-0.08 0.038,-0.041 0.076,-0.081 0.112,-0.124 0.032,-0.038 0.063,-0.076 0.093,-0.115 0.031,-0.04 0.061,-0.082 0.091,-0.124 0.029,-0.041 0.059,-0.082 0.086,-0.125 0.026,-0.041 0.05,-0.083 0.074,-0.126 0.05,-0.086 0.095,-0.173 0.137,-0.262 0.018,-0.038 0.036,-0.075 0.053,-0.113 0.021,-0.051 0.04,-0.103 0.058,-0.155 0.011,-0.03 0.024,-0.059 0.034,-0.089 l 12.819,-38.456 c 0.401,-1.204 0.088,-2.531 -0.809,-3.428 -0.897,-0.897 -2.224,-1.21 -3.428,-0.809 l -38.456,12.819 c -0.028,0.009 -0.054,0.022 -0.082,0.032 -0.06,0.022 -0.119,0.043 -0.177,0.068 -0.038,0.016 -0.075,0.035 -0.113,0.052 -0.058,0.027 -0.116,0.055 -0.172,0.086 -0.038,0.021 -0.075,0.044 -0.112,0.066 -0.053,0.032 -0.106,0.062 -0.157,0.097 -0.042,0.028 -0.082,0.06 -0.122,0.09 -0.044,0.033 -0.09,0.064 -0.133,0.1 -0.079,0.065 -0.154,0.133 -0.226,0.204 -0.005,0.005 -0.011,0.01 -0.017,0.015 l -32.303,32.303 v -57.365 h 87.74 v 87.74 z" /><g
       id="g3762"><g
         id="g3760"><g
           id="g3758"><path
             style="fill:#ffffff"
             id="path3740"
             d="m 294.463,376.982 c -5.228,0 -9.133,-0.596 -12.509,-1.456 -0.662,-0.198 -1.324,-0.596 -1.324,-1.324 v -6.486 c 0,-0.927 0.529,-1.258 1.191,-1.258 0.066,0 0.132,0 0.199,0 2.713,0.265 9.994,0.794 12.575,0.794 4.567,0 5.89,-1.456 5.89,-4.633 0,-1.919 -0.927,-2.978 -4.368,-5.03 l -9.133,-5.427 c -6.155,-3.64 -7.81,-7.81 -7.81,-12.641 0,-7.28 4.103,-12.906 16.943,-12.906 4.831,0 11.516,0.794 14.031,1.456 0.529,0.132 0.993,0.463 0.993,1.191 v 6.684 c 0,0.596 -0.265,1.125 -1.125,1.125 0,0 -0.066,0 -0.132,0 -1.853,-0.132 -9.53,-0.728 -14.031,-0.728 -3.772,0 -5.162,1.125 -5.162,3.508 0,1.853 0.86,2.713 4.434,4.633 l 8.471,4.567 c 6.883,3.706 8.935,8.074 8.935,13.435 0,7.017 -4.633,14.496 -18.068,14.496 z" /><path
             style="fill:#ffffff"
             id="path3742"
             d="m 337.019,376.453 c -1.985,0.331 -3.309,0.529 -5.228,0.529 -7.28,0 -11.119,-1.919 -11.119,-11.317 v -19.193 l -5.294,-0.86 c -0.728,-0.132 -1.39,-0.662 -1.39,-1.39 v -4.368 c 0,-0.728 0.662,-1.39 1.39,-1.39 h 5.294 v -5.427 c 0,-0.728 0.596,-1.191 1.324,-1.324 l 8.074,-1.39 c 0.066,0 0.132,0 0.199,0 0.662,0 1.191,0.463 1.191,1.125 v 7.015 h 5.427 c 0.728,0 1.324,0.596 1.324,1.324 v 5.361 c 0,0.728 -0.596,1.324 -1.324,1.324 h -5.427 v 19.259 c 0,2.647 0.199,3.111 2.184,3.111 h 3.243 c 0.86,0 1.39,0.397 1.39,1.125 v 5.162 c 0,0.662 -0.463,1.191 -1.258,1.324 z" /><path
             style="fill:#ffffff"
             id="path3744"
             d="m 373.685,360.767 h -21.112 v 0.132 c 0,3.772 1.588,7.214 6.817,7.214 4.169,0 10.06,-0.331 12.707,-0.596 0.066,0 0.132,0 0.199,0 0.728,0 1.257,0.331 1.257,1.059 v 5.03 c 0,1.059 -0.265,1.522 -1.39,1.787 -4.236,1.059 -7.81,1.588 -13.568,1.588 -8.008,0 -16.612,-4.236 -16.612,-17.009 v -4.633 c 0,-10.655 6.221,-17.406 16.744,-17.406 10.854,0 16.347,7.413 16.347,17.406 v 3.839 c 0,0.994 -0.529,1.589 -1.389,1.589 z m -9.067,-6.883 c 0,-4.898 -2.25,-7.346 -5.957,-7.346 -3.64,0 -6.089,2.515 -6.089,7.346 v 0.265 h 12.045 v -0.265 z" /><path
             style="fill:#ffffff"
             id="path3746"
             d="m 411.41,360.767 h -21.112 v 0.132 c 0,3.772 1.588,7.214 6.817,7.214 4.169,0 10.06,-0.331 12.707,-0.596 0.066,0 0.132,0 0.199,0 0.728,0 1.257,0.331 1.257,1.059 v 5.03 c 0,1.059 -0.265,1.522 -1.39,1.787 -4.236,1.059 -7.81,1.588 -13.568,1.588 -8.008,0 -16.612,-4.236 -16.612,-17.009 v -4.633 c 0,-10.655 6.221,-17.406 16.744,-17.406 10.854,0 16.347,7.413 16.347,17.406 v 3.839 c 0,0.994 -0.529,1.589 -1.389,1.589 z m -9.067,-6.883 c 0,-4.898 -2.25,-7.346 -5.957,-7.346 -3.64,0 -6.089,2.515 -6.089,7.346 v 0.265 h 12.045 v -0.265 z" /><path
             style="fill:#ffffff"
             id="path3748"
             d="m 447.943,375.261 c -3.773,0.927 -9.001,1.721 -14.097,1.721 -10.722,0 -16.612,-6.221 -16.612,-16.943 v -5.162 c 0,-10.391 5.427,-16.943 16.612,-16.943 1.324,0 3.508,0.199 5.427,0.463 v -11.45 c 0,-0.728 0.596,-1.324 1.324,-1.324 h 8.008 c 0.728,0 1.39,0.596 1.39,1.324 v 46.394 c 0,1.06 -0.265,1.523 -2.052,1.92 z m -8.67,-28.127 c -1.588,-0.199 -3.839,-0.331 -5.427,-0.331 -4.699,0 -5.89,3.441 -5.89,8.074 v 5.162 c 0,4.699 1.191,8.141 5.89,8.141 2.184,0 4.169,-0.198 5.427,-0.397 z" /><path
             style="fill:#ffffff"
             id="path3750"
             d="m 466.54,334.162 h -8.604 c -0.728,0 -1.324,-0.596 -1.324,-1.324 v -6.155 c 0,-0.728 0.596,-1.324 1.324,-1.324 h 8.604 c 0.728,0 1.324,0.596 1.324,1.324 v 6.155 c 0,0.728 -0.596,1.324 -1.324,1.324 z m -0.264,42.224 h -8.074 c -0.728,0 -1.324,-0.596 -1.324,-1.324 v -35.276 c 0,-0.728 0.596,-1.324 1.324,-1.324 h 8.074 c 0.728,0 1.324,0.596 1.324,1.324 v 35.276 c -0.001,0.729 -0.596,1.324 -1.324,1.324 z" /><path
             style="fill:#ffffff"
             id="path3752"
             d="m 495.065,376.453 c -1.985,0.331 -3.309,0.529 -5.228,0.529 -7.28,0 -11.119,-1.919 -11.119,-11.317 v -19.193 l -5.294,-0.86 c -0.728,-0.132 -1.39,-0.662 -1.39,-1.39 v -4.368 c 0,-0.728 0.662,-1.39 1.39,-1.39 h 5.294 v -5.427 c 0,-0.728 0.596,-1.191 1.324,-1.324 l 8.074,-1.39 c 0.066,0 0.132,0 0.199,0 0.662,0 1.191,0.463 1.191,1.125 v 7.015 h 5.427 c 0.728,0 1.324,0.596 1.324,1.324 v 5.361 c 0,0.728 -0.596,1.324 -1.324,1.324 h -5.427 v 19.259 c 0,2.647 0.199,3.111 2.184,3.111 h 3.243 c 0.86,0 1.39,0.397 1.39,1.125 v 5.162 c -10e-4,0.662 -0.464,1.191 -1.258,1.324 z" /><path
             style="fill:#ffffff"
             id="path3754"
             d="m 515.913,376.982 c -10.721,0 -16.612,-6.684 -16.612,-17.208 v -4.633 c 0,-10.523 5.89,-17.208 16.612,-17.208 10.722,0 16.546,6.684 16.546,17.208 v 4.633 c 0,10.524 -5.825,17.208 -16.546,17.208 z m 5.89,-21.84 c 0,-5.361 -2.052,-8.074 -5.89,-8.074 -3.838,0 -5.956,2.713 -5.956,8.074 v 4.633 c 0,5.361 2.118,8.141 5.956,8.141 3.839,0 5.89,-2.78 5.89,-8.141 z" /><path
             style="fill:#ffffff"
             id="path3756"
             d="m 557.807,346.803 h -0.529 c -3.243,0 -6.089,0.993 -8.538,2.316 v 25.878 c 0,0.728 -0.596,1.39 -1.324,1.39 h -8.008 c -0.728,0 -1.39,-0.662 -1.39,-1.39 v -35.209 c 0,-0.728 0.596,-1.324 1.324,-1.324 h 7.876 c 0.728,0 1.324,0.596 1.324,1.324 v 1.324 c 2.449,-2.052 5.758,-3.177 8.935,-3.177 0.728,0 1.324,0.596 1.324,1.324 v 6.287 c -0.002,0.595 -0.399,1.257 -0.994,1.257 z" /></g></g></g></g></svg>